<?xml version="1.0" standalone="no"?><!DOCTYPE svg PUBLIC "-//W3C//DTD SVG 1.1//EN" "http://www.w3.org/Graphics/SVG/1.1/DTD/svg11.dtd"><svg t="1677400655974" class="icon" viewBox="0 0 1024 1024" version="1.1" xmlns="http://www.w3.org/2000/svg" p-id="18892" xmlns:xlink="http://www.w3.org/1999/xlink" width="200" height="200"><path d="M507.345455 830.836364c-169.890909 0-307.2-137.309091-307.2-307.2 0-169.890909 137.309091-307.2 307.2-307.2S814.545455 353.745455 814.545455 523.636364c0 169.890909-137.309091 307.2-307.2 307.2z m0-570.181819c-144.290909 0-262.981818 118.690909-262.981819 262.981819s118.690909 262.981818 262.981819 262.981818 262.981818-118.690909 262.981818-262.981818S651.636364 260.654545 507.345455 260.654545z" fill="#FF9300" p-id="18893"></path><path d="M148.945455 397.963636c48.872727-155.927273 195.490909-269.963636 365.381818-269.963636 172.218182 0 316.509091 114.036364 365.381818 269.963636h41.890909C870.4 221.090909 707.490909 88.436364 514.327273 88.436364S155.927273 218.763636 107.054545 397.963636h41.89091z" fill="#FF9300" p-id="18894"></path><path d="M141.963636 593.454545c-65.163636 0-118.690909-53.527273-118.690909-118.690909s53.527273-118.690909 118.690909-118.690909v44.218182c-39.563636 0-74.472727 32.581818-74.472727 74.472727 0 39.563636 32.581818 74.472727 74.472727 74.472728v44.218181zM882.036364 593.454545v-44.218181c39.563636 0 74.472727-32.581818 74.472727-74.472728 0-39.563636-32.581818-74.472727-74.472727-74.472727v-44.218182c65.163636 0 118.690909 53.527273 118.690909 118.690909s-53.527273 118.690909-118.690909 118.690909z" fill="#FF9300" p-id="18895"></path><path d="M744.727273 889.018182l-25.6-37.236364c100.072727-67.490909 160.581818-179.2 160.581818-300.218182h44.218182c0 134.981818-67.490909 260.654545-179.2 337.454546z" fill="#FF9300" p-id="18896"></path><path d="M730.763636 875.054545m-60.509091 0a60.509091 60.509091 0 1 0 121.018182 0 60.509091 60.509091 0 1 0-121.018182 0Z" fill="#FF9300" p-id="18897"></path></svg>