<?xml version="1.0" standalone="no"?><!DOCTYPE svg PUBLIC "-//W3C//DTD SVG 1.1//EN" "http://www.w3.org/Graphics/SVG/1.1/DTD/svg11.dtd"><svg t="1677376750863" class="icon" viewBox="0 0 1024 1024" version="1.1" xmlns="http://www.w3.org/2000/svg" p-id="16686" xmlns:xlink="http://www.w3.org/1999/xlink" width="200" height="200"><path d="M511.548421 7.22526C233.375904 7.22526 7.044629 233.556536 7.044629 511.729053s226.331275 504.503793 504.503792 504.503792 504.503793-226.331275 504.503793-504.503792S789.720938 7.22526 511.548421 7.22526z m0 943.438349c-242.046216 0-438.934556-196.88834-438.934556-438.934556s196.88834-438.934556 438.934556-438.934557 438.934556 196.88834 438.934557 438.934557-196.88834 438.934556-438.934557 438.934556z" p-id="16687" fill="#1aad19"></path><path d="M785.205151 325.678603c-12.824837-12.824837-33.59746-12.824837-46.422297 0L436.405715 628.236373l-152.091727-152.091727c-12.824837-12.824837-33.59746-12.824837-46.422296 0-12.824837 12.824837-12.824837 33.59746 0 46.422297l175.212559 175.21256c1.625684 1.625684 3.251367 3.070736 5.238314 4.154524 5.418945 3.61263 11.741048 5.418945 18.06315 5.418945 8.489681 0 16.79873-3.251367 23.301464-9.573469 0 0 0.180632-0.180632 0.180632-0.361263L785.205151 372.1009c12.824837-12.824837 12.824837-33.59746 0-46.422297z" p-id="16688" fill="#1aad19"></path></svg>