<?xml version="1.0" standalone="no"?><!DOCTYPE svg PUBLIC "-//W3C//DTD SVG 1.1//EN" "http://www.w3.org/Graphics/SVG/1.1/DTD/svg11.dtd"><svg t="1677376645743" class="icon" viewBox="0 0 1024 1024" version="1.1" xmlns="http://www.w3.org/2000/svg" p-id="13943" xmlns:xlink="http://www.w3.org/1999/xlink" width="200" height="200"><path d="M512 39.384615c259.938462 0 472.615385 212.676923 472.615385 472.615385s-212.676923 472.615385-472.615385 472.615385S39.384615 771.938462 39.384615 512 252.061538 39.384615 512 39.384615m0-39.384615C228.430769 0 0 228.430769 0 512s228.430769 512 512 512 512-228.430769 512-512S795.569231 0 512 0z" fill="#ffffff" p-id="13944"></path><path d="M512 196.923077c173.292308 0 315.076923 141.784615 315.076923 315.076923s-141.784615 315.076923-315.076923 315.076923-315.076923-141.784615-315.076923-315.076923 141.784615-315.076923 315.076923-315.076923m0-39.384615c-196.923077 0-354.461538 157.538462-354.461538 354.461538s157.538462 354.461538 354.461538 354.461538 354.461538-157.538462 354.461538-354.461538-157.538462-354.461538-354.461538-354.461538z" fill="#ffffff" p-id="13945"></path><path d="M846.769231 492.307692h157.538461c11.815385 0 19.692308 7.876923 19.692308 19.692308s-7.876923 19.692308-19.692308 19.692308h-157.538461m-665.6 0H19.692308c-11.815385 0-19.692308-11.815385-19.692308-19.692308 0-11.815385 7.876923-19.692308 19.692308-19.692308h161.476923M531.692308 842.830769v161.476923c0 11.815385-7.876923 19.692308-19.692308 19.692308s-19.692308-7.876923-19.692308-19.692308v-161.476923m0-665.6v-157.538461c0-11.815385 11.815385-19.692308 19.692308-19.692308 11.815385 0 19.692308 7.876923 19.692308 19.692308v153.6M512 350.523077l66.953846 153.6h-137.846154L512 350.523077m7.876923-82.707692h-11.815385L322.953846 677.415385h43.323077l63.015385-133.907693h169.353846l63.015384 133.907693h43.323077L519.876923 267.815385z" fill="#ffffff" p-id="13946"></path></svg>