<?xml version="1.0" standalone="no"?><!DOCTYPE svg PUBLIC "-//W3C//DTD SVG 1.1//EN" "http://www.w3.org/Graphics/SVG/1.1/DTD/svg11.dtd"><svg t="1677376291734" class="icon" viewBox="0 0 1024 1024" version="1.1" xmlns="http://www.w3.org/2000/svg" p-id="12570" xmlns:xlink="http://www.w3.org/1999/xlink" width="200" height="200"><path d="M982.77247 313.848314c-25.654903-60.892962-62.589979-115.496978-109.507506-162.414506-46.917528-46.917528-101.621369-83.752778-162.414506-109.507507C647.861182 15.372977 580.978748 1.796841 511.900175 1.796841c-68.978748 0-135.961006 13.476311-198.950282 40.229285-60.892962 25.654903-115.496978 62.589979-162.414506 109.507506-46.917528 46.917528-83.752778 101.621369-109.507506 162.414506C14.374732 376.937415 0.798596 443.819848 0.798596 512.898421c0 68.878924 13.476311 135.961006 40.12946 198.950282 25.654903 60.793137 62.589979 115.496978 109.507506 162.414506 46.917528 46.917528 101.621369 83.752778 162.414506 109.507507 62.989277 26.553324 129.87171 40.229284 198.950283 40.229284 68.978748 0 135.961006-13.476311 198.950283-40.229284 60.793137-25.654903 115.496978-62.589979 162.414505-109.507507 46.917528-46.917528 83.752778-101.621369 109.507507-162.414506 26.553324-62.989277 40.229284-129.87171 40.229284-198.950282-0.099825-68.978748-13.476311-135.961006-40.12946-199.050107zM511.900175 997.247027C244.769741 997.247027 27.451745 780.028856 27.451745 512.898421S244.769741 28.44999 511.900175 28.44999 996.248781 245.767986 996.248781 512.898421C996.248781 779.929031 778.930786 997.247027 511.900175 997.247027z m0 0" fill="#1aad19" p-id="12571"></path><path d="M693.281341 248.263599h50.611036c7.387015 0 13.276662 5.989472 13.276662 13.276662v504.71281c0 7.387015-5.989472 13.276662-13.276662 13.276662H279.109378c-7.387015 0-13.276662-5.989472-13.276662-13.276662V261.540261c0-7.387015 5.989472-13.276662 13.276662-13.276662h56.600507c7.387015 0 13.276662-5.989472 13.276662-13.276662 0-7.387015-5.989472-13.276662-13.276662-13.276662h-83.35348c-7.387015 0-13.276662 5.989472-13.276662 13.276662v558.019107c0 7.387015 5.989472 13.276662 13.276662 13.276662H770.64535c7.387015 0 13.276662-5.989472 13.276662-13.276662v-558.019107c0-7.387015-5.989472-13.276662-13.276662-13.276662h-77.264184c-7.387015 0-13.276662 5.989472-13.276662 13.276662-0.099825 7.28719 5.889647 13.276662 13.176837 13.276662z m-13.276662 0" fill="#1aad19" p-id="12572"></path><path d="M426.350556 221.61045h178.086956v26.752974H426.350556V221.61045zM352.380581 312.650419h313.349191V339.403392H352.380581v-26.752973z m0 114.598557h318.83954v26.752974H352.380581V427.248976z m0 119.489959h313.349191v26.752974H352.380581v-26.752974z m0 117.693118h318.83954v26.752973H352.380581v-26.752973z m0 0" fill="#1aad19" p-id="12573"></path></svg>